Coordinates
version=1
nRows=13
nColumns=34
inDegrees=yes

Units are S.I. units (second, meters, Newtons, ...)
If the header above contains a line with 'inDegrees', this indicates whether rotational values are in degrees (yes) or radians (no).

endheader
time	pelvis_tilt	pelvis_list	pelvis_rotation	pelvis_tx	pelvis_ty	pelvis_tz	hip_flexion_r	hip_adduction_r	hip_rotation_r	knee_angle_r	ankle_angle_r	subtalar_angle_r	mtp_angle_r	hip_flexion_l	hip_adduction_l	hip_rotation_l	knee_angle_l	ankle_angle_l	subtalar_angle_l	mtp_angle_l	lumbar_extension	lumbar_bending	lumbar_rotation	arm_flex_r	arm_add_r	arm_rot_r	elbow_flex_r	pro_sup_r	arm_flex_l	arm_add_l	arm_rot_l	elbow_flex_l	pro_sup_l
      1.71666670	     -0.13020097	      3.84329274	     27.20565889	      0.38524298	      0.97400346	     -0.11395044	     -3.65617097	      0.18026472	    -11.01563069	      0.00000000	     -1.75935174	     -7.84985905	      0.00000000	     -3.51224377	      4.88556205	    -11.12978647	      0.00000000	     -3.90928741	      2.08156193	      0.00000000	     -8.43809657	     -2.24280781	      2.67228027	     -1.44711512	     -3.71521901	    -10.02844803	     28.65050108	     89.82891692	      3.46541729	     -8.09269947	      9.95294613	     25.59650313	     83.02551874
      1.73333330	     -0.12637915	      3.79715215	     27.32308849	      0.38645511	      0.97571051	     -0.11452049	     -3.55419123	      0.22981680	    -10.95735169	      0.00000000	     -1.75766053	     -7.85299240	      0.00000000	     -3.43164901	      4.82890622	    -11.11731162	      0.00000000	     -3.79765599	      2.10755079	      0.00000000	     -8.51543508	     -2.24102915	      2.70352404	     -1.36612044	     -3.75414902	    -10.04163012	     28.66796636	     89.82893336	      3.49472011	     -8.11429673	      9.95466272	     25.61386410	     83.03642961
      1.75000000	     -0.12081425	      3.77155270	     27.23157726	      0.38618529	      0.97635096	     -0.11486513	     -3.46841804	      0.23940589	    -10.95679521	      0.00000000	     -1.76944684	     -7.87499053	      0.00000000	     -3.33737918	      4.82764628	    -11.08588515	      0.00000000	     -3.72105719	      2.13903822	      0.00000000	     -8.59173893	     -2.20193155	      2.64942444	     -1.38150682	     -3.78046818	    -10.05270148	     28.65331048	     89.82879678	      3.58656812	     -8.12440578	      9.95607390	     25.65351543	     83.04646402
      1.76666670	     -0.10075106	      3.78515899	     27.23480371	      0.38667188	      0.97659129	     -0.11527999	     -3.45421736	      0.24092481	    -10.95584620	      0.00000000	     -1.76995391	     -7.87497650	      0.00000000	     -3.32735829	      4.82632593	    -11.08573423	      0.00000000	     -3.72043859	      2.13950851	      0.00000000	     -8.59292641	     -2.20168426	      2.64992892	     -1.38081340	     -3.78090662	    -10.05286389	     28.65339973	     89.82879777	      3.58680928	     -8.12475983	      9.95610776	     25.65374830	     83.04662122
      1.78333330	     -0.15845034	      3.69468797	     27.45739250	      0.38645557	      0.97825833	     -0.11547092	     -3.38213508	      0.30950423	    -10.92830770	      0.00000000	     -2.08847048	     -8.00423457	      0.00000000	     -3.24343400	      4.74523785	    -10.91719920	      0.00000000	     -3.90362272	      2.50259343	      0.00000000	     -8.71360041	     -2.09438885	      2.61594924	     -1.37204757	     -3.86158589	    -10.12163727	     28.62375556	     89.82936346	      3.71546244	     -8.13992903	     10.00519155	     25.78781499	     83.12703458
      1.80000000	     -0.11738437	      3.70512235	     27.45498304	      0.38811537	      0.97406640	     -0.11665289	     -3.34235843	      0.31283484	    -10.93224748	      0.00000000	     -2.09048091	     -8.00827534	      0.00000000	     -3.24941093	      4.75314010	    -10.92452260	      0.00000000	     -3.90498584	      2.50113203	      0.00000000	     -8.72639082	     -2.09500441	      2.61106161	     -1.37819171	     -3.86336016	    -10.12301252	     28.62057508	     89.82929970	      3.71567554	     -8.13859120	     10.00632630	     25.78834239	     83.12825159
      1.81666670	     -0.14564758	      3.70405980	     27.45672423	      0.38879496	      0.97557542	     -0.11649132	     -3.33939506	      0.33161162	    -10.93528291	      0.00000000	     -2.09655588	     -8.01087162	      0.00000000	     -3.26680917	      4.75871130	    -10.93569596	      0.00000000	     -3.92003878	      2.50212219	      0.00000000	     -8.73389005	     -2.09467081	      2.60115244	     -1.39232087	     -3.86730866	    -10.12537903	     28.61554323	     89.82911572	      3.71386222	     -8.13535676	     10.00808887	     25.78893790	     83.12979921
      1.83333330	     -0.13978634	      3.67952522	     27.46141525	      0.38663868	      0.97869578	     -0.11486844	     -3.29310946	      0.37153821	    -11.06124290	      0.00000000	     -2.37254265	     -8.08700161	      0.00000000	     -3.22300800	      4.71019317	    -11.37087664	      0.00000000	     -4.72664749	      2.57499512	      0.00000000	     -8.77864675	     -2.04206513	      2.46522023	     -1.48554650	     -3.88260075	    -10.20305883	     28.62170894	     89.82404842	      3.64563808	     -8.17893789	     10.05912870	     25.80011929	     83.20135776
      1.85000000	     -0.10713336	      3.69194293	     27.45588969	      0.38819334	      0.97719283	     -0.11597879	     -3.25604656	      0.38366431	    -11.06299384	      0.00000000	     -2.37653253	     -8.08898588	      0.00000000	     -3.22204204	      4.71520726	    -11.37440508	      0.00000000	     -4.73646623	      2.57587020	      0.00000000	     -8.78935485	     -2.04457045	      2.46109577	     -1.48680284	     -3.88286109	    -10.20477190	     28.62135381	     89.82393523	      3.64550743	     -8.17872998	     10.06032782	     25.79965139	     83.20289980
      1.86666670	     -0.10196237	      3.63423824	     27.38534720	      0.38881780	      0.97978424	     -0.11633352	     -3.08967765	      0.43506421	    -11.32422084	      0.00000000	     -2.83399393	     -8.12852259	      0.00000000	     -3.17414547	      4.66860731	    -11.72116432	      0.00000000	     -5.31002541	      2.57566972	      0.00000000	     -8.86955210	     -1.97188529	      2.38438175	     -1.46092125	     -3.86894453	    -10.27436923	     28.65606320	     89.81985987	      3.59828071	     -8.18270065	     10.10490005	     25.77373200	     83.26966429
      1.88333330	     -0.08024180	      3.62883084	     27.39657271	      0.38859066	      0.97912533	     -0.11710015	     -3.00872359	      0.42974022	    -11.32519130	      0.00000000	     -2.83621578	     -8.12989972	      0.00000000	     -3.24287547	      4.67306836	    -11.72330270	      0.00000000	     -5.31162410	      2.57500723	      0.00000000	     -8.87105765	     -1.97351072	      2.38266680	     -1.46552998	     -3.86800005	    -10.27526650	     28.65465071	     89.81982057	      3.59487149	     -8.18332698	     10.10548078	     25.77227672	     83.27057587
      1.90000000	     -0.13937096	      3.60000050	     27.39299928	      0.38994990	      0.97967947	     -0.11757397	     -3.04965719	      0.43772002	    -11.32727843	      0.00000000	     -2.84146700	     -8.13065972	      0.00000000	     -3.26821886	      4.68466219	    -11.72475190	      0.00000000	     -5.31646006	      2.57451881	      0.00000000	     -8.87131573	     -1.97341799	      2.37948468	     -1.46947208	     -3.86851833	    -10.27642128	     28.65326236	     89.81974332	      3.59333932	     -8.18055905	     10.10638637	     25.77170655	     83.27146968
      1.91666670	     -0.17684413	      3.59115307	     27.39533085	      0.38748211	      0.98002989	     -0.11604880	     -3.06830455	      0.43335361	    -11.32941970	      0.00000000	     -2.84186395	     -8.13189628	      0.00000000	     -3.30922024	      4.68923386	    -11.72864811	      0.00000000	     -5.31995067	      2.57297460	      0.00000000	     -8.85692831	     -1.97294781	      2.37417535	     -1.48617460	     -3.86831570	    -10.27790090	     28.64880538	     89.81963445	      3.58274193	     -8.17758919	     10.10782661	     25.76896516	     83.27261514
